<svg xmlns="http://www.w3.org/2000/svg" viewBox="0 0 24 30" fill="none" x="0px" y="0px"><path d="M9.75 7.5C9.75 7.08579 9.41421 6.75 9 6.75C8.58578 6.75 8.25 7.08579 8.25 7.5V8C8.25 10.0711 9.92893 11.75 12 11.75C14.0711 11.75 15.75 10.0711 15.75 8V7.5C15.75 7.08579 15.4142 6.75 15 6.75C14.5858 6.75 14.25 7.08579 14.25 7.5V8C14.25 9.24264 13.2426 10.25 12 10.25C10.7574 10.25 9.75 9.24264 9.75 8V7.5Z" fill="black"/><path fill-rule="evenodd" clip-rule="evenodd" d="M10.7025 3.75C9.49408 3.74998 8.51599 3.74997 7.73693 3.84882C6.92601 3.95172 6.23578 4.17124 5.65633 4.67856C5.07687 5.18589 4.76806 5.84104 4.55889 6.63125C4.35793 7.39041 4.22868 8.35992 4.06899 9.55777L3.65452 12.6663C3.45021 14.1985 3.28629 15.4277 3.29326 16.3994C3.30047 17.4046 3.4887 18.2662 4.1051 18.9702C4.72151 19.6743 5.55062 19.9747 6.5461 20.1147C7.50828 20.25 8.74844 20.25 10.2942 20.25H13.7058C15.2516 20.25 16.4917 20.25 17.4539 20.1147C18.4494 19.9747 19.2785 19.6743 19.8949 18.9702C20.5113 18.2662 20.6995 17.4046 20.7067 16.3994C20.7137 15.4278 20.5498 14.1985 20.3455 12.6663L19.931 9.55778C19.7713 8.35993 19.6421 7.39042 19.4411 6.63125C19.2319 5.84104 18.9231 5.18589 18.3437 4.67856C17.7642 4.17124 17.074 3.95172 16.2631 3.84882C15.484 3.74997 14.5059 3.74998 13.2975 3.75H10.7025ZM6.64441 5.80714C6.91342 5.57161 7.27315 5.4197 7.92576 5.33689C8.59939 5.25141 9.48202 5.25 10.7531 5.25H13.2469C14.518 5.25 15.4006 5.25141 16.0742 5.33689C16.7268 5.4197 17.0866 5.57161 17.3556 5.80714C17.6246 6.04266 17.8227 6.37915 17.991 7.01509C18.1648 7.67152 18.2829 8.54622 18.4508 9.80614L18.8508 12.8061C19.0647 14.4103 19.2129 15.5348 19.2068 16.3886C19.2008 17.2211 19.0463 17.6624 18.7663 17.9821C18.4863 18.3019 18.0694 18.5134 17.245 18.6293C16.3995 18.7482 15.2653 18.75 13.6469 18.75H10.3531C8.73472 18.75 7.6005 18.7482 6.75501 18.6293C5.93062 18.5134 5.51365 18.3019 5.23368 17.9821C4.95371 17.6624 4.7992 17.2211 4.79322 16.3886C4.78709 15.5348 4.93526 14.4103 5.14915 12.8061L5.54915 9.80614C5.71714 8.54622 5.83519 7.67152 6.00895 7.01509C6.17728 6.37915 6.3754 6.04266 6.64441 5.80714Z" fill="black"/><text x="0" y="39" fill="#000000" font-size="5px" font-weight="bold" font-family="'Helvetica Neue', Helvetica, Arial-Unicode, Arial, Sans-serif">Created by Leapp Icon</text><text x="0" y="44" fill="#000000" font-size="5px" font-weight="bold" font-family="'Helvetica Neue', Helvetica, Arial-Unicode, Arial, Sans-serif">from the Noun Project</text></svg>