<?xml version="1.0" ?><!DOCTYPE svg  PUBLIC '-//W3C//DTD SVG 1.1//EN'  'http://www.w3.org/Graphics/SVG/1.1/DTD/svg11.dtd'><svg enable-background="new 0 0 32 32" height="32px" version="1.1" viewBox="0 0 32 32" width="32px" xml:space="preserve" xmlns="http://www.w3.org/2000/svg" xmlns:xlink="http://www.w3.org/1999/xlink"><g id="Guides"/><g id="Mail"/><g id="Cloud"/><g id="Home"/><g id="Back"/><g id="Next"/><g id="Reload"/><g id="Buble"/><g id="Accept"/><g id="Reject"/><g id="User"><path d="M16,16c-6.7285,0-12,2.855-12,6.5S9.2715,29,16,29s12-2.855,12-6.5S22.7285,16,16,16z M16,27c-5.8936,0-10-2.3716-10-4.5   S10.1064,18,16,18s10,2.3716,10,4.5S21.8936,27,16,27z M16,14c3.0322,0,5.5-2.4673,5.5-5.5S19.0322,3,16,3s-5.5,2.4673-5.5,5.5   S12.9678,14,16,14z M16,5c1.9297,0,3.5,1.5703,3.5,3.5S17.9297,12,16,12s-3.5-1.5703-3.5-3.5S14.0703,5,16,5z"/></g><g id="Download"/><g id="Upload"/><g id="Camera"/><g id="Notification"/><g id="About"/><g id="Search"/><g id="Cart"/><g id="Sound"/><g id="List"/><g id="Settings"/></svg>